# Blender 5.0.1
# www.blender.org
mtllib moon_oyster.mtl
o Cube.005
v 0.000000 -0.953507 0.000000
v 0.000000 0.953507 -0.000000
v 0.953507 0.000000 0.000000
v -0.953507 0.000000 0.000000
v -0.521109 0.521109 -0.000000
v 0.521109 0.521109 -0.000000
v 0.521109 -0.521109 0.000000
v -0.521109 -0.521109 0.000000
v 0.000000 -1.322565 0.825198
v 0.000000 1.322565 0.825198
v -1.322565 0.000000 0.825198
v 1.322565 0.000000 0.825198
v 0.000000 -0.000000 -0.902981
vn 0.6038 -0.7277 -0.3254
vn -0.6038 -0.7277 -0.3254
vn -0.7174 -0.0000 0.6967
vn -0.0000 -0.0000 1.0000
vn 0.6038 0.7277 -0.3254
vn -0.0000 0.7174 0.6967
vn -0.0000 -0.7174 0.6967
vn -0.6038 0.7277 -0.3254
vn 0.7174 -0.0000 0.6967
vn -0.7277 0.6038 -0.3254
vn 0.7277 0.6038 -0.3254
vn 0.7277 -0.6038 -0.3254
vn -0.7277 -0.6038 -0.3254
vn 0.5972 0.4956 -0.6307
vn 0.4956 0.5972 -0.6307
vn -0.4956 0.5972 -0.6307
vn -0.5972 0.4956 -0.6307
vn -0.5972 -0.4956 -0.6307
vn -0.4956 -0.5972 -0.6307
vn 0.4956 -0.5972 -0.6307
vn 0.5972 -0.4956 -0.6307
vt 0.000000 0.000000
s 1
usemtl Moon_Oister_-_Base_Color
f 1/1/1 7/1/1 9/1/1
f 8/1/2 1/1/2 9/1/2
f 6/1/3 7/1/3 12/1/3
f 5/1/4 8/1/4 7/1/4 6/1/4
f 6/1/5 2/1/5 10/1/5
f 7/1/6 8/1/6 9/1/6
f 5/1/7 6/1/7 10/1/7
f 2/1/8 5/1/8 10/1/8
f 8/1/9 5/1/9 11/1/9
f 5/1/10 4/1/10 11/1/10
f 12/1/11 3/1/11 6/1/11
f 12/1/12 7/1/12 3/1/12
f 8/1/13 11/1/13 4/1/13
f 13/1/14 6/1/14 3/1/14
f 2/1/15 6/1/15 13/1/15
f 2/1/16 13/1/16 5/1/16
f 13/1/17 4/1/17 5/1/17
f 13/1/18 8/1/18 4/1/18
f 1/1/19 8/1/19 13/1/19
f 1/1/20 13/1/20 7/1/20
f 13/1/21 3/1/21 7/1/21
