# Blender 4.5.2 LTS
# www.blender.org
mtllib player_ship_02.mtl
o Cube.003
v 1.433492 -0.965124 -1.058696
v 0.746359 -0.154274 1.679017
v 2.013109 -0.463947 0.350536
v 2.379519 -0.553520 -1.744907
v 1.678669 -0.512684 -1.058696
v 1.174226 -0.258872 -1.272605
v 1.154907 1.173588 -1.058696
v 0.687848 0.294916 1.679017
v 1.855292 0.747626 0.350536
v 2.192977 0.878574 -1.744907
v 1.513332 0.756617 -1.058696
v 1.082173 0.447827 -1.272605
v -1.433492 -0.965124 -1.058696
v -0.746359 -0.154274 1.679017
v -2.013109 -0.463947 0.350536
v -2.379519 -0.553520 -1.744907
v -1.678669 -0.512684 -1.058696
v -1.174226 -0.258872 -1.272605
v -1.154906 1.173588 -1.058696
v -0.687848 0.294916 1.679017
v -1.855292 0.747626 0.350536
v -2.192976 0.878574 -1.744907
v -1.513332 0.756617 -1.058696
v -1.082173 0.447827 -1.272605
v 0.000000 0.461213 0.048932
v 0.000000 -0.000000 0.647575
v 0.647575 0.000000 0.000000
v 0.000000 -0.442874 -0.000000
v 0.000000 0.000000 -2.265178
v -0.647575 0.000000 0.000000
v 0.000000 0.554218 -0.324867
v 0.928298 0.262343 -0.173696
v 0.716839 0.033759 -0.173696
v 0.980873 -0.141050 -0.173696
v -0.928298 0.262343 -0.173696
v -0.716839 0.033759 -0.173696
v -0.980873 -0.141050 -0.173696
v 0.882508 0.051974 -0.113194
v -0.882508 0.051974 -0.113194
vn 0.0852 -0.9493 0.3026
vn 0.4676 -0.8759 0.1192
vn 0.3116 -0.1688 -0.9351
vn -0.6450 0.3495 -0.6796
vn -0.9196 -0.3740 -0.1201
vn 0.1139 0.9916 -0.0613
vn 0.4385 0.8982 0.0317
vn -0.0267 0.9531 0.3014
vn 0.3401 0.9336 0.1131
vn 0.2846 0.2447 -0.9269
vn -0.5730 -0.4925 -0.6550
vn -0.9830 0.1352 -0.1243
vn 0.2334 -0.9704 -0.0628
vn 0.5708 -0.8204 0.0338
vn -0.0852 -0.9493 0.3026
vn -0.4676 -0.8759 0.1192
vn -0.3116 -0.1688 -0.9351
vn 0.6450 0.3495 -0.6796
vn 0.9196 -0.3740 -0.1201
vn -0.1139 0.9916 -0.0613
vn -0.4385 0.8982 0.0317
vn 0.0267 0.9531 0.3014
vn -0.3401 0.9336 0.1131
vn -0.2846 0.2447 -0.9269
vn 0.5730 -0.4925 -0.6550
vn 0.9830 0.1352 -0.1243
vn -0.2334 -0.9704 -0.0628
vn -0.5708 -0.8204 0.0338
vn 0.5210 0.6762 0.5210
vn 0.5573 -0.8149 -0.1593
vn -0.5573 -0.8149 -0.1593
vn 0.4916 -0.7188 0.4916
vn -0.6928 0.6934 -0.1981
vn -0.5210 0.6762 0.5210
vn -0.4916 -0.7188 0.4916
vn 0.6455 0.7636 0.0158
vn 0.6928 0.6934 -0.1981
vn -0.6455 0.7636 0.0158
vn 0.3556 0.3290 0.8748
vn -0.0000 -0.0000 -1.0000
vn -0.2724 -0.4114 0.8698
vn 0.6349 0.0827 0.7682
vn -0.3556 0.3290 0.8748
vn -0.6349 0.0827 0.7682
vn 0.2724 -0.4114 0.8698
vt 0.000000 0.000000
s 0
usemtl Secondary.002
f 1/1/1 3/1/1 2/1/1
f 3/1/2 1/1/2 4/1/2
f 1/1/5 2/1/5 6/1/5
f 2/1/6 3/1/6 4/1/6 5/1/6
f 6/1/7 2/1/7 5/1/7
f 7/1/8 8/1/8 9/1/8
f 9/1/9 10/1/9 7/1/9
f 7/1/12 12/1/12 8/1/12
f 8/1/13 11/1/13 10/1/13 9/1/13
f 12/1/14 11/1/14 8/1/14
f 13/1/15 14/1/15 15/1/15
f 15/1/16 16/1/16 13/1/16
f 13/1/19 18/1/19 14/1/19
f 14/1/20 17/1/20 16/1/20 15/1/20
f 18/1/21 17/1/21 14/1/21
f 19/1/22 21/1/22 20/1/22
f 21/1/23 19/1/23 22/1/23
f 19/1/26 20/1/26 24/1/26
f 20/1/27 21/1/27 22/1/27 23/1/27
f 24/1/28 20/1/28 23/1/28
f 25/1/29 26/1/29 27/1/29
f 28/1/30 29/1/30 27/1/30
f 29/1/31 28/1/31 30/1/31
f 27/1/32 26/1/32 28/1/32
f 31/1/33 29/1/33 30/1/33
f 26/1/34 25/1/34 30/1/34
f 26/1/35 30/1/35 28/1/35
f 29/1/37 31/1/37 27/1/37
f 35/1/40 36/1/40 37/1/40
f 34/1/42 32/1/42 38/1/42
f 35/1/44 37/1/44 39/1/44
f 32/1/40 34/1/40 33/1/40
usemtl Thruster.002
f 5/1/3 1/1/3 6/1/3
f 1/1/4 5/1/4 4/1/4
f 11/1/10 12/1/10 7/1/10
f 7/1/11 10/1/11 11/1/11
f 17/1/17 18/1/17 13/1/17
f 13/1/18 16/1/18 17/1/18
f 23/1/24 19/1/24 24/1/24
f 19/1/25 23/1/25 22/1/25
f 27/1/36 31/1/36 25/1/36
f 25/1/38 31/1/38 30/1/38
f 36/1/39 35/1/39 39/1/39
f 33/1/41 34/1/41 38/1/41
f 32/1/43 33/1/43 38/1/43
f 37/1/45 36/1/45 39/1/45
